<svg width="34" height="41" viewBox="0 0 34 41" xmlns="http://www.w3.org/2000/svg">
  <g fill="none" fill-rule="evenodd">
    <path d="M11 37.25v-5.66a6.18 6.18 0 0 1 6-6.34 6.18 6.18 0 0 1 6 6.34v5.66M17 31.25v8" stroke="currentColor" stroke-width="2" stroke-linecap="round"/>
    <path d="M5 33.25v-2.34a11.83 11.83 0 0 1 12-11.66 11.83 11.83 0 0 1 12 11.66v2.34" stroke="currentColor" stroke-width="2" stroke-linecap="round"/>
    <path d="M1 23.25c2.72-5.78 8-10 16-10a16.84 16.84 0 0 1 16 10" stroke="currentColor" stroke-width="2" stroke-linecap="round"/>
    <path d="M1 13.25c4.12-3.79 9-6 16-6s11.88 2.21 16 6M5 4.25c3-2 7-3 12-3s9 1 12 3" stroke="currentColor" stroke-width="2" stroke-linecap="round"/>
  </g>
</svg>
