<svg width="36" height="40" viewBox="0 0 36 40" xmlns="http://www.w3.org/2000/svg">
  <g transform="translate(-2)" fill="none" fill-rule="evenodd">
    <rect stroke="currentColor" stroke-width="2" stroke-linejoin="round" x="9" y="11" width="22" height="28" rx="11"/>
    <path d="M27 13v-2a7 7 0 0 0-14 0v2M20 20v19M30 19h2a5 5 0 0 0 5-5M10 19H8a5 5 0 0 1-5-5M10 31H8a5 5 0 0 0-5 5M30 31h2a5 5 0 0 1 5 5M31 25h7M2 25h7" stroke="currentColor" stroke-width="2" stroke-linejoin="round"/>
    <path d="M27 1l-2 4M13 1l2 4" stroke="currentColor" stroke-width="2" stroke-linecap="round" stroke-linejoin="round"/>
  </g>
</svg>
