<svg viewBox="0 0 51 33" width="51" height="33">
  <path d="M24.1 15.2c0-.7.6-1.3 1.3-1.3h16.5c.7 0 1.3.6 1.3 1.3s-.6 1.3-1.3 1.3H25.4c-.7 0-1.3-.6-1.3-1.3zm1.3 6.4h16.5c.7 0 1.3-.6 1.3-1.3s-.6-1.3-1.3-1.3H25.4c-.7 0-1.3.6-1.3 1.3s.6 1.3 1.3 1.3zM6.3 25.4V15.2c0-.7.6-1.3 1.3-1.3h10.2c.7 0 1.3.6 1.3 1.3v10.2c0 .7-.6 1.3-1.3 1.3H7.6c-.7 0-1.3-.6-1.3-1.3zm2.6-1.3h7.6v-7.6H8.9v7.6zM50.8 3.8v25.4c0 2.1-1.7 3.8-3.8 3.8H3.8C1.7 33 0 31.3 0 29.2V3.8C0 1.7 1.7 0 3.8 0H47c2.1 0 3.8 1.7 3.8 3.8zm-2.6 6.4H2.5v19c0 .7.6 1.3 1.3 1.3H47c.7 0 1.3-.6 1.3-1.3v-19zm0-6.4c0-.7-.6-1.3-1.3-1.3H3.7c-.7 0-1.3.6-1.3 1.3v3.8h45.7V3.8zM25.4 26.7h11.4c.7 0 1.3-.6 1.3-1.3s-.6-1.3-1.3-1.3H25.4c-.7 0-1.3.6-1.3 1.3s.6 1.3 1.3 1.3z" fill="currentColor" />
</svg>
