<svg viewBox="0 0 30 26" width="30" height="26">
  <path fill="currentColor" d="M.7 0C.3 0 0 .3 0 .7s.3.7.7.7h4.2C6.6 5.5 8.3 9.8 10 14l-1.6 3.8c-.2.4.2.9.6.9h16.7c.4 0 .7-.3.7-.7s-.3-.7-.7-.7H10l1.1-2.7 16.3-1.3c.3 0 .5-.2.6-.5l2-8.7c.1-.4-.2-.8-.6-.8H7.1L5.9.4c0-.2-.3-.4-.6-.4H.7zm6.9 4.7h20.9L26.8 12l-15.7 1.2-3.5-8.5zM12.3 20c-1.6 0-3 1.4-3 3s1.4 3 3 3 3-1.4 3-3-1.3-3-3-3zm10 0c-1.6 0-3 1.4-3 3s1.4 3 3 3 3-1.4 3-3-1.3-3-3-3zm-10 1.3c.9 0 1.7.7 1.7 1.7s-.7 1.7-1.7 1.7-1.7-.7-1.7-1.7.8-1.7 1.7-1.7zm10 0c.9 0 1.7.7 1.7 1.7s-.7 1.7-1.7 1.7-1.7-.7-1.7-1.7.8-1.7 1.7-1.7z"/>
</svg>
