<svg height="30" viewBox="0 0 30 30" width="30" xmlns="http://www.w3.org/2000/svg">
  <path d="m1531.17653 87.000019 13.57652-13.5765349c.325-.3250032.325-.8531284 0-1.1781317-.325-.3250032-.85313-.3250032-1.17813 0l-13.57652 13.5765349-13.57652-13.5781349c-.325-.3250032-.85313-.3250032-1.17813 0s-.325.8531285 0 1.1781317l13.57652 13.5781349-13.57652 13.576535c-.325.325003-.325.853128 0 1.178132.16094.164065.37501.245314.58753.245314.21406 0 .42656-.081249.59064-.243754l13.57652-13.5781353 13.57652 13.5765353c.16406.164065.37656.245314.59064.245314.21407 0 .42657-.081249.59065-.243754.325-.325004.325-.853129 0-1.178132z" fill="currentColor" fill-rule="evenodd" transform="translate(-1515 -72)"/>
</svg>