<svg width="40" height="40" viewBox="0 0 40 40" xmlns="http://www.w3.org/2000/svg">
  <g fill="none" fill-rule="evenodd">
    <path stroke="currentColor" stroke-width="2" stroke-linecap="round" d="M16 16l3 3 6-8"/>
    <path d="M7 13C7 6.37 13.37 1 20 1s13 5.37 13 12a6 6 0 1 1 0 12H7a6 6 0 1 1 0-12z" stroke="currentColor" stroke-width="2"/>
    <circle stroke="currentColor" stroke-width="2" cx="4" cy="36" r="3"/>
    <circle stroke="currentColor" stroke-width="2" cx="36" cy="36" r="3"/>
    <circle stroke="currentColor" stroke-width="2" cx="20" cy="36" r="3"/>
    <path d="M20 33v-5M7 35a6 6 0 0 0 6-6v-1M33 35a6 6 0 0 1-6-6v-1" stroke="currentColor" stroke-width="2"/>
  </g>
</svg>
