<?xml version="1.0" encoding="UTF-8"?>
<svg width="35px" height="51px" viewBox="0 0 35 51" version="1.1" xmlns="http://www.w3.org/2000/svg" xmlns:xlink="http://www.w3.org/1999/xlink">
    <!-- Generator: Sketch 52.6 (67491) - http://www.bohemiancoding.com/sketch -->
    <title>Group 7</title>
    <desc>Created with Sketch.</desc>
    <g id="Page-1" stroke="none" stroke-width="1" fill="none" fill-rule="evenodd">
        <g id="01-E-commerce-Homepage" transform="translate(-1057.000000, -1782.000000)" stroke="#FF2A41">
            <g id="Group-7" transform="translate(1058.000000, 1782.000000)">
                <path d="M21,50.5 L21,46 C24.3333333,43.4660111 26,41.2993445 26,39.5 C16.3333333,39.5 11.5,39.5 11.5,39.5" id="Path-3" stroke-width="1.5"></path>
                <path d="M5.75,26.3288472 L11.9712958,39.25 L27,39.25 C28.2426407,39.25 29.25,38.2426407 29.25,37 L29.25,3 C29.25,1.75735931 28.2426407,0.75 27,0.75 L8,0.75 C6.75735931,0.75 5.75,1.75735931 5.75,3 L5.75,26.3288472 Z" id="Path" stroke-width="1.5"></path>
                <path d="M9.75,0.75 L9.75,2 C9.75,3.24264069 10.7573593,4.25 12,4.25 L23,4.25 C24.2426407,4.25 25.25,3.24264069 25.25,2 L25.25,0.75 L9.75,0.75 Z" id="Rectangle" stroke-width="1.5"></path>
                <rect id="Rectangle-Copy-11" stroke-width="1.5" x="9.75" y="13.75" width="15.5" height="11.5" rx="2"></rect>
                <path d="M29.2,9.34870408 L29.496933,9.31656205 C30.9089136,9.16371974 32.0890625,7.76748064 32.0890625,6.20669084 C32.0890625,4.70194446 30.9977645,3.64708414 29.6475983,3.79323524 L29.2,3.8416863 L29.2,9.34870408 Z" id="Rectangle-Copy-7" stroke-width="1.4"></path>
                <path d="M29.2,15.7784312 L29.6392549,15.7361663 C31.285629,15.5777533 32.6251953,14.1690009 32.6251953,12.6271425 C32.6251953,11.1398753 31.3694823,10.0609547 29.7733427,10.2145342 L29.2,10.2697009 L29.2,15.7784312 Z" id="Rectangle-Copy-8" stroke-width="1.4"></path>
                <path d="M29.2,22.1866926 L29.610939,22.1462537 C31.2106245,21.9888348 32.5179688,20.5827216 32.5179688,19.0370829 C32.5179688,17.5462865 31.2954906,16.4720497 29.7480454,16.6243278 L29.2,16.6782588 L29.2,22.1866926 Z" id="Rectangle-Copy-9" stroke-width="1.4"></path>
                <path d="M29.2,28.0952657 L29.5020047,28.0647988 C30.9214686,27.9216003 32.0890625,26.6341978 32.0890625,25.2143867 C32.0890625,23.849707 31.0074236,22.8753157 29.6425265,23.0130094 L29.2,23.0576525 L29.2,28.0952657 Z" id="Rectangle-Copy-10" stroke-width="1.4"></path>
                <path d="M5.5,50.5 C5,42.5 1,43 -1.4033219e-13,34 C2.47446508e-12,28.5 0.5,30.5 1.5,23.491 C1.5,16 1.5,12.5 1.5,9 C1.5,7 5.5,7 5.5,9 C5.5,12.6666667 5.5,18.5 5.5,26.5 C8.01548892,27.3513225 9.60371438,28.8103902 10.2646764,30.8772032 C11.0882255,33.4524222 11.5,37.1600211 11.5,42" id="Path-2" stroke-width="1.5"></path>
                <rect id="Rectangle" stroke-width="1.5" x="13.75" y="19.75" width="3.5" height="1"></rect>
                <circle id="Oval" stroke-width="1.3" cx="20" cy="19.5" r="2"></circle>
                <rect id="Rectangle-Copy-12" stroke-width="1.5" transform="translate(15.000000, 20.750000) rotate(-90.000000) translate(-15.000000, -20.750000) " x="14.75" y="20.75" width="1" height="1"></rect>
            </g>
        </g>
    </g>
</svg>