<svg width="40" height="32" viewBox="0 0 40 32" xmlns="http://www.w3.org/2000/svg">
  <g transform="translate(0 -4)" fill="none" fill-rule="evenodd">
    <rect stroke="currentColor" stroke-width="2" stroke-linejoin="round" transform="rotate(-45 7.013 22.562)" x="3.478" y="20.442" width="7.07" height="4.24" rx="2.12"/>
    <rect stroke="currentColor" stroke-width="2" stroke-linejoin="round" transform="rotate(-45 10.015 25.562)" x="6.48" y="23.442" width="7.07" height="4.24" rx="2.12"/>
    <rect stroke="currentColor" stroke-width="2" stroke-linejoin="round" transform="rotate(-45 13.018 28.562)" x="9.483" y="26.442" width="7.07" height="4.24" rx="2.12"/>
    <rect stroke="currentColor" stroke-width="2" stroke-linejoin="round" transform="rotate(-45 16.507 31.058)" x="13.677" y="28.938" width="5.66" height="4.24" rx="2.12"/>
    <path d="M1.01 15.56l5 5M29 24.45l2.51 2.49a2.11 2.11 0 0 0 3 0 2.09 2.09 0 0 0 0-3L24.42 14a2 2 0 0 0-2.88 0l-4 4a2.12 2.12 0 0 1-3 0 2.09 2.09 0 0 1 0-3l7.74-7.7a6 6 0 0 1 4.22-1.74H33M33.01 21.56l6-6M11 5.56l3 3a2.84 2.84 0 0 1 4 0l1 1M30.01 19.56l-5.59-5.47" stroke="currentColor" stroke-width="2" stroke-linecap="round" stroke-linejoin="round"/>
    <path d="M26 27.5l2.52 2.5a2.14 2.14 0 0 0 3 0 2.06 2.06 0 0 0 0-2.94L29 24.56M23 30.5l2.52 2.5a2.14 2.14 0 0 0 3 0 2.06 2.06 0 0 0 0-2.94L26 27.56M19 32.5l1.51 1.5a2.17 2.17 0 0 0 3 0 2 2 0 0 0 0-2.91l-.5-.49" stroke="currentColor" stroke-width="2" stroke-linecap="round" stroke-linejoin="round"/>
  </g>
</svg>
