<svg width="41" height="40" viewBox="0 0 41 40" xmlns="http://www.w3.org/2000/svg">
  <g fill="none" fill-rule="evenodd">
    <path stroke="currentColor" stroke-width="2" stroke-linejoin="round" d="M27.01 13V9h-6v4l-3 1-3-3-4 4 3 3-1 3h-4v6h4l1 3-3 3 4 4 3-3 3 1v4h6v-4l3-1 3 3 4-4-3-3 1-3h4v-6h-4l-1-3 3-3-4-4-3 3z"/>
    <path stroke="currentColor" stroke-width="2" stroke-linecap="round" stroke-linejoin="round" d="M19.01 5V1h-6v4l-3 1-3-3-4 4 3 3-1 3h-4v6h4"/>
    <circle stroke="currentColor" stroke-width="2" stroke-linejoin="round" cx="24.01" cy="24" r="6"/>
    <path d="M24 22a2 2 0 1 0 0 4 2 2 0 0 0 0-4z" fill="currentColor"/>
    <path d="M19.01 5h3M5.01 19v3" stroke="currentColor" stroke-width="2" stroke-linejoin="round"/>
  </g>
</svg>
