<svg width="25" height="40" viewBox="0 0 25 40" xmlns="http://www.w3.org/2000/svg">
  <g fill="none" fill-rule="evenodd">
    <path d="M12.51 39a21.12 21.12 0 0 1-11-18.53V20l11-6 11 6v.47a21.12 21.12 0 0 1-11 18.53z" stroke="currentColor" stroke-width="2" stroke-linejoin="round"/>
    <path d="M8.34 10.79a5.58 5.58 0 0 1 4.17-1.66 5.58 5.58 0 0 1 4.17 1.66M5.43 7.49A10.67 10.67 0 0 1 12.51 5a10.67 10.67 0 0 1 7.08 2.48M2.51 4.31a15.89 15.89 0 0 1 10-3.31 15.89 15.89 0 0 1 10 3.31" stroke="currentColor" stroke-width="2"/>
    <path stroke="currentColor" stroke-width="2" stroke-linecap="round" d="M8.51 27l3 3 6-7"/>
  </g>
</svg>
