<svg width="16" height="16" viewBox="0 0 16 16">
  <path d="M8 0C3.6 0 0 3.6 0 8s3.6 8 8 8 8-3.6 8-8-3.6-8-8-8zm0 1.1c3.8 0 6.9 3.1 6.9 6.9s-3.1 6.9-6.9 6.9S1.1 11.8 1.1 8 4.2 1.1 8 1.1zm0 2.5c-1.5 0-2.7 1.2-2.7 2.7 0 .1.1.3.2.4.1.1.2.2.4.2s.3-.1.4-.2c.1-.1.2-.2.2-.4 0-.9.7-1.6 1.6-1.6.9 0 1.6.7 1.6 1.6 0 .6-.2.9-.6 1.3-.4.4-.9.7-1.3 1.1-.1.1-.2.3-.2.4v.7c0 .1.1.3.2.4.1.1.2.2.4.2.1 0 .3-.1.4-.2.1-.1.2-.2.2-.4v-.4c.4-.3.8-.6 1.3-1.1.5-.5.9-1.2.9-2-.3-1.5-1.5-2.7-3-2.7zM8 11c-.4 0-.7.3-.7.7s.3.7.7.7.7-.3.7-.7-.3-.7-.7-.7z" opacity=".559"/>
</svg>
