<svg viewBox="0 0 28 40" width="28" height="40">
  <path fill="none" stroke="currentColor" stroke-width="2" stroke-linecap="square" d="M6 7h16c2.8 0 5 2.2 5 5v16c0 2.8-2.2 5-5 5H6c-2.8 0-5-2.2-5-5V12c0-2.8 2.2-5 5-5z"/>
  <path fill="none" stroke="currentColor" stroke-width="2" d="M6 7l.9-5.2c.1-.5.5-.8 1-.8h12.3c.5 0 .9.4 1 .8L22 7m0 26l-.9 5.2c-.1.5-.5.8-1 .8H7.9c-.5 0-.9-.4-1-.8L6 33"/>
  <path d="M14 28c-.6 0-1 .4-1 1s.4 1 1 1 1-.4 1-1-.4-1-1-1zm0-18c-.6 0-1 .4-1 1s.4 1 1 1 1-.4 1-1-.4-1-1-1zm9 9c-.6 0-1 .4-1 1s.4 1 1 1 1-.4 1-1-.4-1-1-1zM5 19c-.6 0-1 .4-1 1s.4 1 1 1 1-.4 1-1-.4-1-1-1zm16 7c-.6 0-1 .4-1 1 0 .3.1.5.3.7.4.4 1 .4 1.4 0 .4-.4.4-1 0-1.4-.2-.2-.4-.3-.7-.3zM7 12c-.6 0-1 .4-1 1 0 .3.1.5.3.7.4.4 1 .4 1.4 0 .4-.4.4-1 0-1.4-.2-.2-.4-.3-.7-.3zm14 0c-.6 0-1 .4-1 1 0 .3.1.5.3.7.4.4 1 .4 1.4 0 .4-.4.4-1 0-1.4-.2-.2-.4-.3-.7-.3zM7 26c-.6 0-1 .4-1 1 0 .3.1.5.3.7.4.4 1 .4 1.4 0 .4-.4.4-1 0-1.4-.2-.2-.4-.3-.7-.3z"/>
</svg>
