<svg width="40" height="40" viewBox="0 0 40 40" xmlns="http://www.w3.org/2000/svg">
  <g fill="none" fill-rule="evenodd">
    <path d="M14 16.25h12v7a6 6 0 1 1-12 0v-7z" stroke="currentColor" stroke-width="2" stroke-linejoin="round"/>
    <circle fill="currentColor" cx="20" cy="23.25" r="2"/>
    <circle stroke="currentColor" stroke-width="2" cx="31.5" cy="36.25" r="2.5"/>
    <circle stroke="currentColor" stroke-width="2" cx="36.5" cy="20.25" r="2.5"/>
    <circle stroke="currentColor" stroke-width="2" cx="3.5" cy="20.25" r="2.5"/>
    <circle stroke="currentColor" stroke-width="2" cx="8.5" cy="36.25" r="2.5"/>
    <circle stroke="currentColor" stroke-width="2" cx="31.5" cy="4.25" r="2.5"/>
    <circle stroke="currentColor" stroke-width="2" cx="8.5" cy="4.25" r="2.5"/>
    <path stroke="currentColor" stroke-width="2" stroke-linejoin="round" d="M11 4.25h6v4M30 4.25h-7v4M29 36.25h-6v-4M11 36.25h6v-4M29 20.25h5M6 20.25h5"/>
    <path d="M17 16.25v-2a3 3 0 0 1 6 0v2" stroke="currentColor" stroke-width="2"/>
  </g>
</svg>
