<svg viewBox="0 0 40 40" width="40" height="40">
<path fill="currentColor" d="M29,40H11c-1.1,0-2-0.9-2-2V2c0-1.1,0.9-2,2-2h18c1.1,0,2,0.9,2,2v36C31,39.1,30.1,40,29,40z M11,2L11,2v36h18V2H11z M20,30
	c-1.1,0-2,0.9-2,2c0,1.1,0.9,2,2,2s2-0.9,2-2C22,30.9,21.1,30,20,30z M36.7,30.6l-1.6-1.2C37,27,38.1,24,38,20.9
	c0-3.1-1-6.1-2.8-8.5l1.6-1.2c2.2,2.8,3.3,6.2,3.3,9.7C40.1,24.4,38.9,27.9,36.7,30.6z M3.3,30.5c-2.1-2.7-3.3-6-3.3-9.4
	c0-0.1,0-0.1,0-0.2c-0.1-3.5,1.1-6.9,3.3-9.6l1.6,1.2C3,14.9,2,17.8,2,20.7c0,0.1,0,0.1,0,0.2c-0.1,3,1,6,2.8,8.4L3.3,30.5z
	 M33.8,28l-1.5-1.3c1.4-1.6,2.1-3.6,2.1-5.7c0-2.1-0.7-4.2-2-5.8l1.5-1.3c1.7,2,2.6,4.5,2.5,7.1C36.3,23.5,35.4,26,33.8,28z M6.2,28
	c-1.7-2-2.6-4.5-2.5-7c-0.1-2.5,0.8-5,2.5-7l1.5,1.3c-1.4,1.6-2.1,3.6-2,5.7c0,2.1,0.7,4.2,2,5.7L6.2,28z M23,6h-6V4h6V6z"/>
</svg>
