<svg height="17" viewBox="0 0 17 17" width="17" xmlns="http://www.w3.org/2000/svg">
  <path d="m16.309375 0h-15.61875c-.371875 0-.690625.31875-.690625.690625v15.565625c0 .425.31875.74375.690625.74375h8.340625v-6.375h-2.125v-2.65625h2.125v-2.125c0-2.178125 1.38125-3.29375 3.346875-3.29375.95625 0 1.753125.10625 1.965625.10625v2.284375h-1.38125c-1.0625 0-1.328125.53125-1.328125 1.275v1.753125h2.65625l-.53125 2.65625h-2.125l.053125 6.375h4.56875c.371875 0 .690625-.31875.690625-.690625v-15.61875c.053125-.371875-.265625-.690625-.6375-.690625z" fill="currentColor"/>
</svg>