<svg height="17" viewBox="0 0 23 17" width="23" xmlns="http://www.w3.org/2000/svg">
  <path d="m22.784375 3.47083333s-.215625-1.55833333-.934375-2.26666666c-.8625-.92083334-1.86875-.92083334-2.3-.99166667-3.234375-.2125-8.05-.2125-8.05-.2125s-4.815625 0-8.05.2125c-.43125.07083333-1.4375.07083333-2.3.99166667-.71875.70833333-.934375 2.26666666-.934375 2.26666666s-.215625 1.84166667-.215625 3.68333334v1.7c0 1.84166663.215625 3.68333333.215625 3.68333333s.215625 1.5583333.934375 2.2666667c.8625.9208333 2.0125.85 2.515625.9916666 1.86875.1416667 7.834375.2125 7.834375.2125s4.815625 0 8.05-.2125c.43125-.0708333 1.4375-.0708333 2.3-.9916666.71875-.7083334.934375-2.2666667.934375-2.2666667s.215625-1.8416667.215625-3.68333333v-1.7c0-1.84166667-.215625-3.68333334-.215625-3.68333334zm-13.65625 7.50833337v-6.37500003l6.18125 3.1875z" fill="currentColor"/>
</svg>