<svg height="17" viewBox="0 0 21 17" width="21" xmlns="http://www.w3.org/2000/svg">
  <path d="m20.4272727 2.02692308c-.7636363.32692307-1.5272727.58846154-2.4181818.65384615.8909091-.52307692 1.5272727-1.37307692 1.8454546-2.35384615-.8272728.52307692-1.7181819.85-2.6727273 1.04615384-.7636364-.85-1.8454546-1.37307692-2.9909091-1.37307692-2.2909091 0-4.20000001 1.89615385-4.20000001 4.31538462 0 .32692307.06363641.65384615.12727271.98076923-3.49999998-.19615385-6.55454544-1.89615385-8.65454544-4.51153846-.38181818.65384615-.57272727 1.37307692-.57272727 2.1576923 0 1.50384616.76363636 2.81153846 1.84545455 3.59615385-.7 0-1.33636364-.19615385-1.90909091-.52307692v.06538461c0 2.09230769 1.46363636 3.79230769 3.37272727 4.18461537-.38181818.0653846-.7.1307692-1.08181818.1307692-.25454546 0-.50909091 0-.76363637-.0653846.50909091 1.7 2.1 2.9423077 3.88181819 3.0076923-1.4 1.1769231-3.24545455 1.8307693-5.21818182 1.8307693-.31818182 0-.7 0-1.01818182-.0653846 1.90909091 1.176923 4.13636364 1.8961538 6.49090909 1.8961538 7.70000001 0 11.90000001-6.5384615 11.90000001-12.22692308 0-.19615384 0-.39230769 0-.52307692.7636364-.65384615 1.4636364-1.37307692 2.0363636-2.22307692z" fill="currentColor"/>
</svg>